<svg width="44" height="45" viewBox="0 0 44 45" fill="none" xmlns="http://www.w3.org/2000/svg">
<path d="M44 33.5002C44 34.7968 43.4849 36.0403 42.5681 36.9572C41.6512 37.874 40.4077 38.3891 39.1111 38.3891H4.88889C3.59227 38.3891 2.34877 37.874 1.43192 36.9572C0.515078 36.0403 0 34.7968 0 33.5002V11.5002C0 10.2036 0.515078 8.96009 1.43192 8.04325C2.34877 7.12641 3.59227 6.61133 4.88889 6.61133H39.1111C40.4077 6.61133 41.6512 7.12641 42.5681 8.04325C43.4849 8.96009 44 10.2036 44 11.5002V33.5002Z" fill="#009B3A"/>
<path d="M40.0008 22.5001L21.9999 36.0961L3.99902 22.5001L21.9999 8.90283L40.0008 22.5001Z" fill="#FEDF01"/>
<path d="M21.9707 30.3004C26.33 30.3004 29.8639 26.7665 29.8639 22.4073C29.8639 18.048 26.33 14.5142 21.9707 14.5142C17.6115 14.5142 14.0776 18.048 14.0776 22.4073C14.0776 26.7665 17.6115 30.3004 21.9707 30.3004Z" fill="#002776"/>
<path d="M15.0054 18.695C14.5953 19.4674 14.3177 20.3032 14.1841 21.1675C19.0669 20.8131 25.6938 23.4787 28.5379 26.7836C29.0292 26.0454 29.3934 25.2192 29.6171 24.3343C26.1069 20.9023 19.9407 18.6754 15.0054 18.695Z" fill="#CBE9D4"/>
<path d="M14.6665 22.7847H15.8887V24.0069H14.6665V22.7847ZM15.8887 25.2291H17.1109V26.4513H15.8887V25.2291Z" fill="#88C9F9"/>
<path d="M18.3335 22.7848H19.5557V24.007H18.3335V22.7848ZM20.7779 24.007H22.0002V25.2292H20.7779V24.007ZM25.6668 26.4514H26.8891V27.6737H25.6668V26.4514ZM22.0002 27.6737H23.2224V28.8959H22.0002V27.6737ZM25.6668 20.3403H26.8891V21.5626H25.6668V20.3403Z" fill="#55ACEE"/>
<path d="M23.2222 25.229H24.4444V26.4512H23.2222V25.229Z" fill="#3B88C3"/>
</svg>
