<svg width="118" height="118" viewBox="0 0 118 118" fill="none" xmlns="http://www.w3.org/2000/svg">
<rect width="118" height="118" rx="59" fill="#210948"/>
<g clip-path="url(#clip0_459_1085)">
<path d="M59.0003 49.5C57.7477 49.5 56.5232 49.8714 55.4817 50.5674C54.4402 51.2633 53.6284 52.2524 53.1491 53.4097C52.6697 54.5669 52.5443 55.8404 52.7887 57.0689C53.0331 58.2975 53.6363 59.4259 54.522 60.3117C55.4077 61.1974 56.5362 61.8006 57.7648 62.045C58.9933 62.2893 60.2667 62.1639 61.424 61.6846C62.5813 61.2052 63.5704 60.3935 64.2663 59.3519C64.9622 58.3104 65.3337 57.0859 65.3337 55.8333C65.3337 54.1536 64.6664 52.5427 63.4787 51.355C62.2909 50.1673 60.68 49.5 59.0003 49.5ZM59.0003 59C58.374 59 57.7618 58.8143 57.241 58.4663C56.7203 58.1184 56.3144 57.6238 56.0747 57.0452C55.835 56.4665 55.7723 55.8298 55.8945 55.2155C56.0167 54.6013 56.3183 54.037 56.7612 53.5942C57.204 53.1513 57.7683 52.8497 58.3825 52.7275C58.9968 52.6053 59.6335 52.668 60.2122 52.9077C60.7908 53.1474 61.2854 53.5533 61.6333 54.074C61.9813 54.5948 62.167 55.207 62.167 55.8333C62.167 56.6732 61.8334 57.4786 61.2395 58.0725C60.6456 58.6664 59.8402 59 59.0003 59Z" fill="url(#paint0_linear_459_1085)"/>
<path d="M59 78.0005C57.6668 78.0073 56.3513 77.6946 55.1637 77.0886C53.9761 76.4825 52.951 75.6008 52.1743 74.5172C46.1402 66.1936 43.0796 59.9362 43.0796 55.9177C43.0796 51.6954 44.7569 47.646 47.7426 44.6603C50.7282 41.6746 54.7776 39.9973 59 39.9973C63.2224 39.9973 67.2718 41.6746 70.2574 44.6603C73.2431 47.646 74.9204 51.6954 74.9204 55.9177C74.9204 59.9362 71.8598 66.1936 65.8258 74.5172C65.049 75.6008 64.0239 76.4825 62.8363 77.0886C61.6487 77.6946 60.3333 78.0073 59 78.0005ZM59 43.4537C55.6947 43.4575 52.5258 44.7722 50.1886 47.1094C47.8513 49.4467 46.5366 52.6156 46.5328 55.9209C46.5328 59.1034 49.5301 64.9887 54.9704 72.4921C55.4323 73.1282 56.0382 73.646 56.7386 74.003C57.4389 74.36 58.2139 74.5461 59 74.5461C59.7861 74.5461 60.5611 74.36 61.2615 74.003C61.9618 73.646 62.5677 73.1282 63.0296 72.4921C68.4699 64.9887 71.4672 59.1034 71.4672 55.9209C71.4634 52.6156 70.1487 49.4467 67.8115 47.1094C65.4742 44.7722 62.3053 43.4575 59 43.4537Z" fill="url(#paint1_linear_459_1085)"/>
</g>
<defs>
<linearGradient id="paint0_linear_459_1085" x1="54.3691" y1="55.8333" x2="67.7482" y2="55.8333" gradientUnits="userSpaceOnUse">
<stop stop-color="#E44963"/>
<stop offset="1" stop-color="#FD9452"/>
</linearGradient>
<linearGradient id="paint1_linear_459_1085" x1="47.3582" y1="58.999" x2="80.9901" y2="58.999" gradientUnits="userSpaceOnUse">
<stop stop-color="#E44963"/>
<stop offset="1" stop-color="#FD9452"/>
</linearGradient>
<clipPath id="clip0_459_1085">
<rect width="38" height="38" fill="white" transform="translate(40 40)"/>
</clipPath>
</defs>
</svg>
