<svg width="118" height="118" viewBox="0 0 118 118" fill="none" xmlns="http://www.w3.org/2000/svg">
<rect width="118" height="118" rx="59" fill="#210948"/>
<path d="M75.1618 47.9629C73.7427 45.5978 71.2199 44.021 68.3817 44.021H49.4606C46.6224 44.021 44.0996 45.5978 42.6805 47.9629C40.9461 51.1165 40 54.5854 40 58.2119C40 66.8841 43.4689 73.9795 47.8838 73.9795C50.2489 73.9795 52.1411 71.7721 53.5601 67.1994C53.7178 66.5687 54.3485 66.0957 55.1369 66.0957H62.8631C63.4938 66.0957 64.1245 66.5687 64.4399 67.1994C65.8589 71.7721 67.7511 73.9795 70.1162 73.9795C74.5311 73.9795 78 66.8841 78 58.2119C77.8424 54.5854 76.8963 51.1165 75.1618 47.9629ZM69.9585 70.826C69.4855 70.826 68.3817 69.5646 67.278 66.2534C66.6473 64.2036 64.7551 62.9422 62.7054 62.9422H55.1369C53.0871 62.9422 51.195 64.3612 50.5643 66.2534C49.4606 69.5646 48.3568 70.826 47.8838 70.826C46.307 70.826 43.1536 65.938 43.1536 58.2119C43.1536 55.2161 43.9419 52.2202 45.361 49.5398C46.3071 48.1207 47.8839 47.1746 49.4607 47.1746H68.3818C69.9586 47.1746 71.5354 48.1207 72.4815 49.5398C73.9005 52.2202 74.689 55.2161 74.689 58.2119C74.6888 65.938 71.5352 70.826 69.9585 70.826Z" fill="url(#paint0_linear_459_1084)"/>
<path d="M54.25 54.2501H52.6667V52.6668C52.6667 51.7168 52.0334 51.0835 51.0834 51.0835C50.1334 51.0835 49.5001 51.7168 49.5001 52.6668V54.2501H47.9168C46.9668 54.2501 46.3335 54.8834 46.3335 55.8334C46.3335 56.7834 46.9668 57.4167 47.9168 57.4167H49.5V59.0001C49.5 59.9501 50.1334 60.5834 51.0834 60.5834C52.0334 60.5834 52.6667 59.9501 52.6667 59.0001V57.4168H54.25C55.2 57.4168 55.8334 56.7835 55.8334 55.8335C55.8334 54.8834 55.2 54.2501 54.25 54.2501Z" fill="url(#paint1_linear_459_1084)"/>
<path d="M69.2915 55.8333C70.6032 55.8333 71.6665 54.7699 71.6665 53.4583C71.6665 52.1466 70.6032 51.0833 69.2915 51.0833C67.9798 51.0833 66.9165 52.1466 66.9165 53.4583C66.9165 54.7699 67.9798 55.8333 69.2915 55.8333Z" fill="url(#paint2_linear_459_1084)"/>
<path d="M64.5415 60.5833C65.8532 60.5833 66.9165 59.5199 66.9165 58.2083C66.9165 56.8966 65.8532 55.8333 64.5415 55.8333C63.2298 55.8333 62.1665 56.8966 62.1665 58.2083C62.1665 59.5199 63.2298 60.5833 64.5415 60.5833Z" fill="url(#paint3_linear_459_1084)"/>
<defs>
<linearGradient id="paint0_linear_459_1084" x1="45.1062" y1="59.0003" x2="85.2437" y2="59.0003" gradientUnits="userSpaceOnUse">
<stop stop-color="#E44963"/>
<stop offset="1" stop-color="#FD9452"/>
</linearGradient>
<linearGradient id="paint1_linear_459_1084" x1="47.61" y1="55.8334" x2="57.6443" y2="55.8334" gradientUnits="userSpaceOnUse">
<stop stop-color="#E44963"/>
<stop offset="1" stop-color="#FD9452"/>
</linearGradient>
<linearGradient id="paint2_linear_459_1084" x1="67.5548" y1="53.4583" x2="72.572" y2="53.4583" gradientUnits="userSpaceOnUse">
<stop stop-color="#E44963"/>
<stop offset="1" stop-color="#FD9452"/>
</linearGradient>
<linearGradient id="paint3_linear_459_1084" x1="62.8048" y1="58.2083" x2="67.822" y2="58.2083" gradientUnits="userSpaceOnUse">
<stop stop-color="#E44963"/>
<stop offset="1" stop-color="#FD9452"/>
</linearGradient>
</defs>
</svg>
