<svg width="118" height="118" viewBox="0 0 118 118" fill="none" xmlns="http://www.w3.org/2000/svg">
<rect width="118" height="118" rx="59" fill="#210948"/>
<g clip-path="url(#clip0_459_1083)">
<path d="M41.5833 47.5212H45.9153C46.2552 48.7717 46.997 49.8755 48.0264 50.6625C49.0558 51.4494 50.3156 51.8758 51.6114 51.8758C52.9071 51.8758 54.1669 51.4494 55.1963 50.6625C56.2257 49.8755 56.9676 48.7717 57.3074 47.5212H76.4167C76.8366 47.5212 77.2393 47.3544 77.5363 47.0575C77.8332 46.7606 78 46.3578 78 45.9379C78 45.518 77.8332 45.1153 77.5363 44.8183C77.2393 44.5214 76.8366 44.3546 76.4167 44.3546H57.3074C56.9676 43.1042 56.2257 42.0003 55.1963 41.2134C54.1669 40.4264 52.9071 40 51.6114 40C50.3156 40 49.0558 40.4264 48.0264 41.2134C46.997 42.0003 46.2552 43.1042 45.9153 44.3546H41.5833C41.1634 44.3546 40.7607 44.5214 40.4637 44.8183C40.1668 45.1153 40 45.518 40 45.9379C40 46.3578 40.1668 46.7606 40.4637 47.0575C40.7607 47.3544 41.1634 47.5212 41.5833 47.5212ZM51.6106 43.1671C52.1586 43.1671 52.6943 43.3296 53.15 43.634C53.6056 43.9385 53.9608 44.3713 54.1705 44.8776C54.3802 45.3839 54.4351 45.941 54.3282 46.4785C54.2213 47.016 53.9574 47.5097 53.5699 47.8972C53.1824 48.2847 52.6886 48.5486 52.1511 48.6555C51.6137 48.7624 51.0565 48.7075 50.5502 48.4978C50.0439 48.2881 49.6112 47.933 49.3067 47.4773C49.0023 47.0216 48.8398 46.4859 48.8398 45.9379C48.8406 45.2033 49.1328 44.499 49.6522 43.9796C50.1717 43.4601 50.876 43.1679 51.6106 43.1671Z" fill="url(#paint0_linear_459_1083)"/>
<path d="M76.4167 57.4152H72.0847C71.7454 56.1645 71.0038 55.0603 69.9745 54.273C68.9452 53.4857 67.6853 53.0591 66.3894 53.0591C65.0935 53.0591 63.8336 53.4857 62.8043 54.273C61.775 55.0603 61.0334 56.1645 60.6942 57.4152H41.5833C41.1634 57.4152 40.7607 57.582 40.4637 57.8789C40.1668 58.1759 40 58.5786 40 58.9985C40 59.4184 40.1668 59.8212 40.4637 60.1181C40.7607 60.415 41.1634 60.5819 41.5833 60.5819H60.6942C61.0334 61.8326 61.775 62.9368 62.8043 63.7241C63.8336 64.5114 65.0935 64.938 66.3894 64.938C67.6853 64.938 68.9452 64.5114 69.9745 63.7241C71.0038 62.9368 71.7454 61.8326 72.0847 60.5819H76.4167C76.8366 60.5819 77.2393 60.415 77.5363 60.1181C77.8332 59.8212 78 59.4184 78 58.9985C78 58.5786 77.8332 58.1759 77.5363 57.8789C77.2393 57.582 76.8366 57.4152 76.4167 57.4152ZM66.3894 61.7694C65.8414 61.7694 65.3057 61.6068 64.85 61.3024C64.3944 60.9979 64.0392 60.5652 63.8295 60.0589C63.6198 59.5526 63.5649 58.9955 63.6718 58.458C63.7787 57.9205 64.0426 57.4268 64.4301 57.0393C64.8177 56.6517 65.3114 56.3878 65.8489 56.2809C66.3863 56.174 66.9435 56.2289 67.4498 56.4386C67.9561 56.6483 68.3888 57.0035 68.6933 57.4591C68.9977 57.9148 69.1602 58.4505 69.1602 58.9985C69.1594 59.7331 68.8672 60.4374 68.3478 60.9569C67.8283 61.4763 67.124 61.7685 66.3894 61.7694Z" fill="url(#paint1_linear_459_1083)"/>
<path d="M76.4167 70.4796H57.3074C56.9676 69.2292 56.2257 68.1253 55.1963 67.3383C54.1669 66.5514 52.9071 66.125 51.6114 66.125C50.3156 66.125 49.0558 66.5514 48.0264 67.3383C46.997 68.1253 46.2552 69.2292 45.9153 70.4796H41.5833C41.1634 70.4796 40.7607 70.6464 40.4637 70.9433C40.1668 71.2402 40 71.643 40 72.0629C40 72.4828 40.1668 72.8855 40.4637 73.1825C40.7607 73.4794 41.1634 73.6462 41.5833 73.6462H45.9153C46.2552 74.8966 46.997 76.0005 48.0264 76.7874C49.0558 77.5744 50.3156 78.0008 51.6114 78.0008C52.9071 78.0008 54.1669 77.5744 55.1963 76.7874C56.2257 76.0005 56.9676 74.8966 57.3074 73.6462H76.4167C76.8366 73.6462 77.2393 73.4794 77.5363 73.1825C77.8332 72.8855 78 72.4828 78 72.0629C78 71.643 77.8332 71.2402 77.5363 70.9433C77.2393 70.6464 76.8366 70.4796 76.4167 70.4796ZM51.6106 74.8337C51.0626 74.8337 50.5269 74.6712 50.0712 74.3667C49.6155 74.0623 49.2604 73.6295 49.0507 73.1232C48.841 72.6169 48.7861 72.0598 48.893 71.5223C48.9999 70.9848 49.2638 70.4911 49.6513 70.1036C50.0388 69.7161 50.5325 69.4522 51.07 69.3453C51.6075 69.2384 52.1646 69.2933 52.6709 69.503C53.1772 69.7127 53.61 70.0678 53.9144 70.5235C54.2189 70.9792 54.3814 71.5149 54.3814 72.0629C54.3802 72.7974 54.0878 73.5014 53.5685 74.0208C53.0491 74.5401 52.3451 74.8325 51.6106 74.8337Z" fill="url(#paint2_linear_459_1083)"/>
</g>
<defs>
<linearGradient id="paint0_linear_459_1083" x1="45.1062" y1="45.9379" x2="85.2437" y2="45.9379" gradientUnits="userSpaceOnUse">
<stop stop-color="#E44963"/>
<stop offset="1" stop-color="#FD9452"/>
</linearGradient>
<linearGradient id="paint1_linear_459_1083" x1="45.1062" y1="58.9985" x2="85.2437" y2="58.9985" gradientUnits="userSpaceOnUse">
<stop stop-color="#E44963"/>
<stop offset="1" stop-color="#FD9452"/>
</linearGradient>
<linearGradient id="paint2_linear_459_1083" x1="45.1062" y1="72.0629" x2="85.2437" y2="72.0629" gradientUnits="userSpaceOnUse">
<stop stop-color="#E44963"/>
<stop offset="1" stop-color="#FD9452"/>
</linearGradient>
<clipPath id="clip0_459_1083">
<rect width="38" height="38" fill="white" transform="translate(40 40)"/>
</clipPath>
</defs>
</svg>
