<svg width="118" height="118" viewBox="0 0 118 118" fill="none" xmlns="http://www.w3.org/2000/svg">
<rect width="118" height="118" rx="59" fill="#210948"/>
<path d="M66.3308 44.5919C65.0847 43.5358 63.7785 42.4259 62.4485 41.2162C61.4282 40.2883 60.0502 39.8583 58.6833 40.0414C57.3586 40.2164 56.18 40.9704 55.466 42.0997C53.5786 45.2537 52.2441 48.707 51.5203 52.3107C51.2362 51.9005 50.9843 51.4692 50.7666 51.0202C50.0167 49.4402 48.1279 48.7673 46.548 49.5172C46.1655 49.6987 45.8232 49.9552 45.5416 50.2713C42.8858 52.9852 41.4135 56.6408 41.4471 60.4378C41.3716 68.4187 46.7399 75.4258 54.4653 77.4302C55.9027 77.7919 57.3784 77.979 58.8606 77.9875C58.9081 77.9875 59.4131 77.9828 59.6174 77.9685C69.0699 77.6624 76.5709 69.9048 76.5591 60.4473C76.5528 53.2749 71.8155 49.2532 66.3308 44.5919ZM58.821 74.8098C57.6426 74.7201 56.4782 74.2428 55.599 73.5336C54.2222 72.5594 53.3112 71.1308 53.0941 69.485C52.825 66.9168 54.4083 63.5586 57.6431 59.765C57.9823 59.3688 58.4785 59.1417 59 59.1443C59.5148 59.1406 60.0044 59.367 60.3348 59.7618C63.2988 63.28 64.9265 66.5258 64.9265 68.9023C64.9173 72.0247 62.4768 74.4947 59.369 74.7955C59.2325 74.8087 59 74.8288 58.821 74.8098ZM67.8286 71.7983C67.7352 71.8711 67.6323 71.9297 67.5373 71.9993C67.9026 71.0064 68.0908 69.9571 68.0931 68.8991C68.0931 64.8981 65.1877 60.6104 62.7525 57.7176C61.8209 56.6142 60.4505 55.9771 59.0063 55.9759H59C57.5529 55.9733 56.1776 56.6061 55.238 57.7065C51.3667 62.2412 49.5886 66.3151 49.9528 69.8158C50.0392 70.6285 50.2468 71.4237 50.5687 72.175C46.8089 69.4507 44.5936 65.0807 44.6185 60.4378C44.5879 57.4216 45.7774 54.521 47.9166 52.3944C48.2818 53.1537 48.7204 53.8754 49.226 54.5494C49.9205 55.4883 51.1069 55.9239 52.2438 55.6577C53.403 55.4013 54.3031 54.487 54.5413 53.3239C55.1774 49.9615 56.393 46.7352 58.1338 43.7891C58.348 43.4523 58.7018 43.2292 59.0981 43.1811C59.5409 43.1215 59.9874 43.2612 60.3173 43.5626C61.6758 44.7976 63.009 45.9376 64.2756 47.0096C69.5608 51.4983 73.3813 54.741 73.3813 60.4473C73.395 64.8881 71.3451 69.0833 67.8333 71.8014L67.8286 71.7983Z" fill="url(#paint0_linear_459_1086)"/>
<defs>
<linearGradient id="paint0_linear_459_1086" x1="46.1646" y1="58.9938" x2="83.2525" y2="58.9938" gradientUnits="userSpaceOnUse">
<stop stop-color="#E44963"/>
<stop offset="1" stop-color="#FD9452"/>
</linearGradient>
</defs>
</svg>
