<svg width="24" height="25" viewBox="0 0 24 25" fill="none" xmlns="http://www.w3.org/2000/svg">
<path d="M7.03017 0.583925C5.75336 0.644166 4.88143 0.847926 4.11918 1.14745C3.33029 1.45489 2.66165 1.86745 1.99636 2.53513C1.33107 3.20281 0.921389 3.87194 0.616106 4.66202C0.320663 5.42594 0.120501 6.29859 0.0641001 7.57611C0.00769954 8.85363 -0.00478059 9.26428 0.00145947 12.523C0.00769954 15.7817 0.0220997 16.1902 0.0840203 17.4704C0.144981 18.7469 0.348023 19.6186 0.647546 20.3811C0.955469 21.17 1.36755 21.8384 2.03548 22.5039C2.70341 23.1694 3.37205 23.5782 4.16406 23.8839C4.92727 24.1789 5.80016 24.38 7.07745 24.4359C8.35474 24.4918 8.76587 24.5048 12.0237 24.4986C15.2815 24.4923 15.6916 24.4779 16.9715 24.4172C18.2515 24.3565 19.1186 24.152 19.8813 23.8539C20.6702 23.5453 21.3391 23.1339 22.0042 22.4658C22.6692 21.7976 23.0787 21.128 23.3837 20.3374C23.6794 19.5742 23.8803 18.7013 23.9357 17.425C23.9916 16.1441 24.0048 15.7352 23.9986 12.4769C23.9923 9.21868 23.9777 8.81019 23.917 7.53051C23.8563 6.25083 23.653 5.38178 23.3537 4.61882C23.0453 3.82994 22.6337 3.16201 21.966 2.49601C21.2983 1.83001 20.6282 1.42081 19.8379 1.11649C19.0742 0.821046 18.2018 0.619686 16.9245 0.564485C15.6472 0.509285 15.2361 0.495125 11.9771 0.501365C8.71811 0.507605 8.3101 0.521525 7.03017 0.583925ZM7.17033 22.2771C6.00032 22.2262 5.36503 22.0318 4.94167 21.8691C4.38102 21.6531 3.98166 21.392 3.55974 20.9742C3.13781 20.5563 2.87861 20.1555 2.65973 19.5961C2.49532 19.1727 2.29732 18.5381 2.2426 17.3681C2.18308 16.1036 2.1706 15.7239 2.16364 12.5201C2.15668 9.31636 2.16892 8.93715 2.22436 7.67211C2.27428 6.50307 2.46988 5.86706 2.63237 5.44394C2.84837 4.88258 3.10853 4.48394 3.52734 4.06226C3.94614 3.64058 4.34574 3.3809 4.90567 3.16201C5.32855 2.99689 5.96312 2.80057 7.13265 2.74489C8.39818 2.68489 8.77739 2.67289 11.9807 2.66593C15.184 2.65897 15.5642 2.67097 16.8302 2.72665C17.9992 2.77753 18.6355 2.97121 19.0581 3.13465C19.619 3.35066 20.0181 3.6101 20.4398 4.02962C20.8615 4.44914 21.1214 4.8473 21.3403 5.40842C21.5057 5.8301 21.702 6.46443 21.7572 7.63467C21.8174 8.9002 21.8311 9.27964 21.8369 12.4827C21.8426 15.6857 21.8314 16.0661 21.7759 17.3307C21.7248 18.5007 21.5309 19.1362 21.3679 19.5601C21.1519 20.1205 20.8915 20.5201 20.4725 20.9415C20.0534 21.363 19.6543 21.6226 19.0941 21.8415C18.6717 22.0064 18.0364 22.2032 16.8679 22.2589C15.6023 22.3184 15.2231 22.3309 12.0186 22.3378C8.81411 22.3448 8.4361 22.3318 7.17057 22.2771M16.9531 6.08642C16.9535 6.37125 17.0385 6.64954 17.1971 6.88609C17.3558 7.12265 17.581 7.30684 17.8443 7.41538C18.1077 7.52391 18.3973 7.55192 18.6765 7.49585C18.9558 7.43978 19.2122 7.30216 19.4132 7.10039C19.6142 6.89862 19.7509 6.64176 19.806 6.3623C19.861 6.08285 19.8319 5.79334 19.7224 5.53041C19.6129 5.26747 19.4279 5.04291 19.1908 4.88514C18.9536 4.72736 18.675 4.64345 18.3902 4.64402C18.0084 4.64478 17.6425 4.79716 17.373 5.06765C17.1035 5.33814 16.9524 5.70459 16.9531 6.08642ZM5.83856 12.512C5.84528 15.9152 8.60915 18.6677 12.0117 18.6613C15.4142 18.6548 18.1687 15.8912 18.1622 12.488C18.1557 9.08475 15.3911 6.33147 11.9881 6.33819C8.58515 6.34491 5.83208 9.10924 5.83856 12.512ZM8.00002 12.5076C7.99846 11.7165 8.23153 10.9427 8.66976 10.284C9.108 9.62531 9.73172 9.11137 10.462 8.80717C11.1924 8.50296 11.9965 8.42216 12.7727 8.57496C13.549 8.72777 14.2625 9.10733 14.823 9.66565C15.3836 10.224 15.766 10.936 15.9218 11.7116C16.0777 12.4872 16.0001 13.2917 15.6988 14.0232C15.3975 14.7547 14.886 15.3804 14.2291 15.8213C13.5721 16.2621 12.7992 16.4983 12.0081 16.4998C11.4827 16.5009 10.9623 16.3985 10.4766 16.1985C9.99086 15.9985 9.54928 15.7047 9.17709 15.334C8.80489 14.9632 8.50938 14.5228 8.30741 14.0379C8.10545 13.5529 8.001 13.033 8.00002 12.5076Z" fill="#BFB4D0"/>
</svg>
