<svg width="24" height="21" viewBox="0 0 24 21" fill="none" xmlns="http://www.w3.org/2000/svg">
<g clip-path="url(#clip0_459_1078)">
<path d="M17.2907 17.4012H14.2838V12.7984C14.2838 11.7009 14.2638 10.288 12.7199 10.288C11.1538 10.288 10.9142 11.4838 10.9142 12.7185V17.4009H7.9073V7.93576H10.7939V9.22927H10.8343C11.1232 8.74647 11.5407 8.3493 12.0422 8.08006C12.5437 7.81081 13.1106 7.67958 13.6824 7.70032C16.73 7.70032 17.2919 9.65973 17.2919 12.2088L17.2907 17.4012ZM4.51454 6.64194C4.16942 6.642 3.83203 6.54203 3.54504 6.35466C3.25806 6.1673 3.03437 5.90096 2.90224 5.58933C2.77012 5.27769 2.73549 4.93476 2.80276 4.60389C2.87003 4.27303 3.03616 3.96909 3.28015 3.73052C3.52414 3.49194 3.83503 3.32944 4.17351 3.26357C4.51198 3.1977 4.86282 3.23142 5.18169 3.36045C5.50056 3.48949 5.77312 3.70805 5.96491 3.9885C6.1567 4.26895 6.2591 4.5987 6.25916 4.93603C6.25921 5.16002 6.21411 5.38181 6.12645 5.58876C6.0388 5.79571 5.91032 5.98376 5.74831 6.14216C5.58631 6.30057 5.39396 6.42624 5.18227 6.51199C4.97058 6.59774 4.74369 6.6419 4.51454 6.64194ZM6.01798 17.4012H3.00796V7.93576H6.01798V17.4012ZM18.7897 0.501351H1.49701C1.10451 0.497022 0.726294 0.645182 0.445499 0.913275C0.164704 1.18137 0.00430192 1.54746 -0.000488281 1.9311V18.9041C0.00413797 19.288 0.164446 19.6543 0.445231 19.9227C0.726017 20.191 1.10432 20.3395 1.49701 20.3354H18.7897C19.1832 20.3402 19.5626 20.1922 19.8445 19.9238C20.1264 19.6555 20.2877 19.2887 20.2932 18.9041V1.92988C20.2876 1.54547 20.1261 1.17897 19.8442 0.91088C19.5623 0.642794 19.183 0.495056 18.7897 0.500126" fill="#BFB4D0"/>
</g>
<defs>
<clipPath id="clip0_459_1078">
<rect width="24" height="20" fill="white" transform="translate(0 0.5)"/>
</clipPath>
</defs>
</svg>
