<svg width="118" height="118" viewBox="0 0 118 118" fill="none" xmlns="http://www.w3.org/2000/svg">
<rect width="118" height="118" rx="59" fill="#210948"/>
<g clip-path="url(#clip0_459_1082)">
<path d="M77.556 75.3087L68.1188 65.8714C73.6548 59.1007 72.6539 49.124 65.8831 43.5881C59.1124 38.0521 49.1358 39.0528 43.5998 45.8236C38.0637 52.5943 39.0646 62.571 45.8354 68.107C51.6674 72.8755 60.0512 72.8755 65.8832 68.107L75.3205 77.5443C75.9486 78.1509 76.9495 78.1335 77.5561 77.5054C78.1478 76.8927 78.1478 75.9214 77.556 75.3087ZM43.2361 55.8728C43.2361 48.8873 48.899 43.2244 55.8845 43.2244C62.8701 43.2244 68.533 48.8873 68.533 55.8728C68.533 62.8584 62.8701 68.5212 55.8845 68.5212C48.9023 68.5134 43.244 62.8551 43.2361 55.8728ZM59.0467 49.5486C57.8656 49.5539 56.7323 50.0162 55.8846 50.8387C55.0369 50.0163 53.9036 49.5539 52.7225 49.5486C50.0185 49.6422 47.8985 51.9035 47.9793 54.6079C47.9793 57.77 51.2063 61.0318 53.9146 63.2088C55.0675 64.127 56.7018 64.127 57.8546 63.2088C60.5629 61.0317 63.7899 57.77 63.7899 54.6079C63.8706 51.9035 61.7507 49.6422 59.0467 49.5486ZM55.894 60.7425C52.9628 58.3867 51.1414 56.0309 51.1414 54.608C51.0625 53.6501 51.766 52.8058 52.7224 52.7107C53.6788 52.8058 54.3824 53.6501 54.3035 54.608C54.3035 55.4812 55.0114 56.1891 55.8846 56.1891C56.7578 56.1891 57.4657 55.4812 57.4657 54.608C57.3868 53.6501 58.0903 52.8058 59.0468 52.7107C60.0032 52.8058 60.7067 53.6501 60.6279 54.608C60.6277 56.0309 58.8064 58.3867 55.894 60.7425Z" fill="url(#paint0_linear_459_1082)"/>
</g>
<defs>
<linearGradient id="paint0_linear_459_1082" x1="45.1261" y1="58.9997" x2="85.2392" y2="58.9997" gradientUnits="userSpaceOnUse">
<stop stop-color="#E44963"/>
<stop offset="1" stop-color="#FD9452"/>
</linearGradient>
<clipPath id="clip0_459_1082">
<rect width="38" height="38" fill="white" transform="translate(40 40)"/>
</clipPath>
</defs>
</svg>
