<svg width="30" height="21" viewBox="0 0 30 21" fill="none" xmlns="http://www.w3.org/2000/svg">
<g clip-path="url(#clip0_459_1079)">
<path d="M11.7914 15.0236V6.15998L19.5401 10.592L11.7914 15.0236ZM29.0275 3.37101C28.6866 2.08019 27.6819 1.06372 26.4064 0.718748C24.0945 0.0917969 14.8235 0.0917969 14.8235 0.0917969C14.8235 0.0917969 5.55264 0.0917969 3.24061 0.718748C1.96506 1.06372 0.960423 2.08019 0.619511 3.37101C0 5.71053 0 10.5918 0 10.5918C0 10.5918 0 15.473 0.619511 17.8126C0.960423 19.1034 1.96506 20.1199 3.24061 20.465C5.55264 21.0918 14.8235 21.0918 14.8235 21.0918C14.8235 21.0918 24.0945 21.0918 26.4064 20.465C27.6819 20.1199 28.6866 19.1034 29.0275 17.8126C29.6471 15.473 29.6471 10.5918 29.6471 10.5918C29.6471 10.5918 29.6471 5.71053 29.0275 3.37101Z" fill="#BFB4D0"/>
</g>
<defs>
<clipPath id="clip0_459_1079">
<rect width="29.6471" height="20.816" fill="white" transform="translate(0 0.0917969)"/>
</clipPath>
</defs>
</svg>
